<?xml version="1.0" encoding="UTF-8" standalone="no"?>
<!DOCTYPE svg PUBLIC "-//W3C//DTD SVG 1.1//EN" "http://www.w3.org/Graphics/SVG/1.1/DTD/svg11.dtd"
[
<!ATTLIST g
  xmlns:vectornator CDATA #FIXED "http://vectornator.io"
  vectornator:layerName CDATA #IMPLIED >
<!ATTLIST g
  xmlns:vectornator CDATA #FIXED "http://vectornator.io"
  vectornator:mask CDATA #IMPLIED >
<!ATTLIST text
  xmlns:vectornator CDATA #FIXED "http://vectornator.io"
  vectornator:width CDATA #IMPLIED >

<!ATTLIST path
  xmlns:vectornator CDATA #FIXED "http://vectornator.io"
  vectornator:blendMode CDATA #IMPLIED >
<!ATTLIST path
  xmlns:vectornator CDATA #FIXED "http://vectornator.io"
  vectornator:shadowColor CDATA #IMPLIED >
<!ATTLIST path
  xmlns:vectornator CDATA #FIXED "http://vectornator.io"
  vectornator:shadowOpacity CDATA #IMPLIED >
<!ATTLIST path
  xmlns:vectornator CDATA #FIXED "http://vectornator.io"
  vectornator:shadowRadius CDATA #IMPLIED >
<!ATTLIST path
  xmlns:vectornator CDATA #FIXED "http://vectornator.io"
  vectornator:shadowOffset CDATA #IMPLIED >
<!ATTLIST path
  xmlns:vectornator CDATA #FIXED "http://vectornator.io"
  vectornator:shadowAngle CDATA #IMPLIED >

<!ATTLIST image
  xmlns:vectornator CDATA #FIXED "http://vectornator.io"
  vectornator:blendMode CDATA #IMPLIED >
<!ATTLIST image
  xmlns:vectornator CDATA #FIXED "http://vectornator.io"
  vectornator:shadowColor CDATA #IMPLIED >
<!ATTLIST image
  xmlns:vectornator CDATA #FIXED "http://vectornator.io"
  vectornator:shadowOpacity CDATA #IMPLIED >
<!ATTLIST image
  xmlns:vectornator CDATA #FIXED "http://vectornator.io"
  vectornator:shadowRadius CDATA #IMPLIED >
<!ATTLIST image
  xmlns:vectornator CDATA #FIXED "http://vectornator.io"
  vectornator:shadowOffset CDATA #IMPLIED >
<!ATTLIST image
  xmlns:vectornator CDATA #FIXED "http://vectornator.io"
  vectornator:shadowAngle CDATA #IMPLIED >

<!ATTLIST g
  xmlns:vectornator CDATA #FIXED "http://vectornator.io"
  vectornator:blendMode CDATA #IMPLIED >
<!ATTLIST g
  xmlns:vectornator CDATA #FIXED "http://vectornator.io"
  vectornator:shadowColor CDATA #IMPLIED >
<!ATTLIST g
  xmlns:vectornator CDATA #FIXED "http://vectornator.io"
  vectornator:shadowOpacity CDATA #IMPLIED >
<!ATTLIST g
  xmlns:vectornator CDATA #FIXED "http://vectornator.io"
  vectornator:shadowRadius CDATA #IMPLIED >
<!ATTLIST g
  xmlns:vectornator CDATA #FIXED "http://vectornator.io"
  vectornator:shadowOffset CDATA #IMPLIED >
<!ATTLIST g
  xmlns:vectornator CDATA #FIXED "http://vectornator.io"
  vectornator:shadowAngle CDATA #IMPLIED >

<!ENTITY % SVG.filter.extra.content  "| feDropShadow" >
<!ELEMENT feDropShadow EMPTY>
<!ATTLIST feDropShadow
  xmlns:svg CDATA #FIXED "http://www.w3.org/Graphics/SVG/1.1/DTD/svg11.dtd"
  dx CDATA #IMPLIED>
<!ATTLIST feDropShadow
  xmlns:svg CDATA #FIXED "http://www.w3.org/Graphics/SVG/1.1/DTD/svg11.dtd"
  dy CDATA #IMPLIED>
<!ATTLIST feDropShadow
  xmlns:svg CDATA #FIXED "http://www.w3.org/Graphics/SVG/1.1/DTD/svg11.dtd"
  stdDeviation CDATA #IMPLIED>
<!ATTLIST feDropShadow
  xmlns:svg CDATA #FIXED "http://www.w3.org/Graphics/SVG/1.1/DTD/svg11.dtd"
  flood-opacity CDATA #IMPLIED>
<!ATTLIST feDropShadow
  xmlns:svg CDATA #FIXED "http://www.w3.org/Graphics/SVG/1.1/DTD/svg11.dtd"
  in CDATA #IMPLIED>
<!ATTLIST feDropShadow
  xmlns:svg CDATA #FIXED "http://www.w3.org/Graphics/SVG/1.1/DTD/svg11.dtd"
  result CDATA #IMPLIED>
<!ATTLIST feDropShadow
  xmlns:svg CDATA #FIXED "http://www.w3.org/Graphics/SVG/1.1/DTD/svg11.dtd"
  flood-color CDATA #IMPLIED>
]
>
<!-- Created with Vectornator (http://vectornator.io/) -->
<svg height="100%" stroke-miterlimit="10" style="fill-rule:nonzero;clip-rule:evenodd;stroke-linecap:round;stroke-linejoin:round;" version="1.1" viewBox="0 0 3800 300" width="100%" xml:space="preserve" xmlns="http://www.w3.org/2000/svg" xmlns:vectornator="http://vectornator.io" xmlns:xlink="http://www.w3.org/1999/xlink">
<defs/>
<g id="Untitled" vectornator:layerName="Untitled">
<path d="M0 0L3800 0L3800 0L3800 300L3800 300L0 300L0 300L0 0L0 0Z" fill="#74c9cc" fill-rule="evenodd" opacity="1" stroke="none"/>
<path d="M0 201L27.5 208.7C55 216.3 110 231.7 165 232.2C220 232.7 275 218.3 330.2 219.8C385.3 221.3 440.7 238.7 495.8 244.8C551 251 606 246 661 236.8C716 227.7 771 214.3 826 220C881 225.7 936 250.3 991.2 252.5C1046.3 254.7 1101.7 234.3 1156.8 224.8C1212 215.3 1267 216.7 1322 223.5C1377 230.3 1432 242.7 1487 250.2C1542 257.7 1597 260.3 1652 255.3C1707 250.3 1762 237.7 1817.2 229.2C1872.3 220.7 1927.7 216.3 1982.8 222.7C2038 229 2093 246 2148 256.5C2203 267 2258 271 2313 265.7C2368 260.3 2423 245.7 2478 240.2C2533 234.7 2588 238.3 2643.2 245.2C2698.3 252 2753.7 262 2808.8 257.3C2864 252.7 2919 233.3 2974 225C3029 216.7 3084 219.3 3139 230.3C3194 241.3 3249 260.7 3304.2 259.8C3359.3 259 3414.7 238 3469.8 234C3525 230 3580 243 3635 251.5C3690 260 3745 264 3772.5 266L3800 268L3800 0L3772.5 0C3745 0 3690 0 3635 0C3580 0 3525 0 3469.8 0C3414.7 0 3359.3 0 3304.2 0C3249 0 3194 0 3139 0C3084 0 3029 0 2974 0C2919 0 2864 0 2808.8 0C2753.7 0 2698.3 0 2643.2 0C2588 0 2533 0 2478 0C2423 0 2368 0 2313 0C2258 0 2203 0 2148 0C2093 0 2038 0 1982.8 0C1927.7 0 1872.3 0 1817.2 0C1762 0 1707 0 1652 0C1597 0 1542 0 1487 0C1432 0 1377 0 1322 0C1267 0 1212 0 1156.8 0C1101.7 0 1046.3 0 991.2 0C936 0 881 0 826 0C771 0 716 0 661 0C606 0 551 0 495.8 0C440.7 0 385.3 0 330.2 0C275 0 220 0 165 0C110 0 55 0 27.5 0L0 0L0 201Z" fill="#59b6bf" fill-rule="evenodd" opacity="1" stroke="none"/>
<path d="M0 213L27.5 213.3C55 213.7 110 214.3 165 209C220 203.7 275 192.3 330.2 198.8C385.3 205.3 440.7 229.7 495.8 233.8C551 238 606 222 661 212.5C716 203 771 200 826 202.3C881 204.7 936 212.3 991.2 217.8C1046.3 223.3 1101.7 226.7 1156.8 225.5C1212 224.3 1267 218.7 1322 220C1377 221.3 1432 229.7 1487 225.5C1542 221.3 1597 204.7 1652 201C1707 197.3 1762 206.7 1817.2 213.7C1872.3 220.7 1927.7 225.3 1982.8 228.5C2038 231.7 2093 233.3 2148 229.3C2203 225.3 2258 215.7 2313 205.2C2368 194.7 2423 183.3 2478 177.7C2533 172 2588 172 2643.2 180.8C2698.3 189.7 2753.7 207.3 2808.8 220C2864 232.7 2919 240.3 2974 238.8C3029 237.3 3084 226.7 3139 225.2C3194 223.7 3249 231.3 3304.2 237.2C3359.3 243 3414.7 247 3469.8 238C3525 229 3580 207 3635 204.5C3690 202 3745 219 3772.5 227.5L3800 236L3800 0L3772.5 0C3745 0 3690 0 3635 0C3580 0 3525 0 3469.8 0C3414.7 0 3359.3 0 3304.2 0C3249 0 3194 0 3139 0C3084 0 3029 0 2974 0C2919 0 2864 0 2808.8 0C2753.7 0 2698.3 0 2643.2 0C2588 0 2533 0 2478 0C2423 0 2368 0 2313 0C2258 0 2203 0 2148 0C2093 0 2038 0 1982.8 0C1927.7 0 1872.3 0 1817.2 0C1762 0 1707 0 1652 0C1597 0 1542 0 1487 0C1432 0 1377 0 1322 0C1267 0 1212 0 1156.8 0C1101.7 0 1046.3 0 991.2 0C936 0 881 0 826 0C771 0 716 0 661 0C606 0 551 0 495.8 0C440.7 0 385.3 0 330.2 0C275 0 220 0 165 0C110 0 55 0 27.5 0L0 0L0 213Z" fill="#45aabc" fill-rule="evenodd" opacity="1" stroke="none"/>
<path d="M0 217L27.5 213C55 209 110 201 165 192.2C220 183.3 275 173.7 330.2 171.3C385.3 169 440.7 174 495.8 181.2C551 188.3 606 197.7 661 200.3C716 203 771 199 826 188.8C881 178.7 936 162.3 991.2 164.5C1046.3 166.7 1101.7 187.3 1156.8 198.2C1212 209 1267 210 1322 199.2C1377 188.3 1432 165.7 1487 158.3C1542 151 1597 159 1652 165.5C1707 172 1762 177 1817.2 173.2C1872.3 169.3 1927.7 156.7 1982.8 150.2C2038 143.7 2093 143.3 2148 149C2203 154.7 2258 166.3 2313 178.2C2368 190 2423 202 2478 197.8C2533 193.7 2588 173.3 2643.2 161.5C2698.3 149.7 2753.7 146.3 2808.8 148C2864 149.7 2919 156.3 2974 164C3029 171.7 3084 180.3 3139 177.7C3194 175 3249 161 3304.2 153.8C3359.3 146.7 3414.7 146.3 3469.8 151.7C3525 157 3580 168 3635 168.8C3690 169.7 3745 160.3 3772.5 155.7L3800 151L3800 0L3772.5 0C3745 0 3690 0 3635 0C3580 0 3525 0 3469.8 0C3414.7 0 3359.3 0 3304.2 0C3249 0 3194 0 3139 0C3084 0 3029 0 2974 0C2919 0 2864 0 2808.8 0C2753.7 0 2698.3 0 2643.2 0C2588 0 2533 0 2478 0C2423 0 2368 0 2313 0C2258 0 2203 0 2148 0C2093 0 2038 0 1982.8 0C1927.7 0 1872.3 0 1817.2 0C1762 0 1707 0 1652 0C1597 0 1542 0 1487 0C1432 0 1377 0 1322 0C1267 0 1212 0 1156.8 0C1101.7 0 1046.3 0 991.2 0C936 0 881 0 826 0C771 0 716 0 661 0C606 0 551 0 495.8 0C440.7 0 385.3 0 330.2 0C275 0 220 0 165 0C110 0 55 0 27.5 0L0 0L0 217Z" fill="#30a0b7" fill-rule="evenodd" opacity="1" stroke="none"/>
<path d="M0 155L27.5 150.5C55 146 110 137 165 141.8C220 146.7 275 165.3 330.2 167C385.3 168.7 440.7 153.3 495.8 150.7C551 148 606 158 661 160.3C716 162.7 771 157.3 826 159C881 160.7 936 169.3 991.2 165.2C1046.3 161 1101.7 144 1156.8 143.8C1212 143.7 1267 160.3 1322 166.8C1377 173.3 1432 169.7 1487 166.5C1542 163.3 1597 160.7 1652 154.5C1707 148.3 1762 138.7 1817.2 136.2C1872.3 133.7 1927.7 138.3 1982.8 145.8C2038 153.3 2093 163.7 2148 170.3C2203 177 2258 180 2313 177.3C2368 174.7 2423 166.3 2478 163.8C2533 161.3 2588 164.7 2643.2 164.8C2698.3 165 2753.7 162 2808.8 157.8C2864 153.7 2919 148.3 2974 151.3C3029 154.3 3084 165.7 3139 163C3194 160.3 3249 143.7 3304.2 143.8C3359.3 144 3414.7 161 3469.8 171C3525 181 3580 184 3635 174.8C3690 165.7 3745 144.3 3772.5 133.7L3800 123L3800 0L3772.5 0C3745 0 3690 0 3635 0C3580 0 3525 0 3469.8 0C3414.7 0 3359.3 0 3304.2 0C3249 0 3194 0 3139 0C3084 0 3029 0 2974 0C2919 0 2864 0 2808.8 0C2753.7 0 2698.3 0 2643.2 0C2588 0 2533 0 2478 0C2423 0 2368 0 2313 0C2258 0 2203 0 2148 0C2093 0 2038 0 1982.8 0C1927.7 0 1872.3 0 1817.2 0C1762 0 1707 0 1652 0C1597 0 1542 0 1487 0C1432 0 1377 0 1322 0C1267 0 1212 0 1156.8 0C1101.7 0 1046.3 0 991.2 0C936 0 881 0 826 0C771 0 716 0 661 0C606 0 551 0 495.8 0C440.7 0 385.3 0 330.2 0C275 0 220 0 165 0C110 0 55 0 27.5 0L0 0L0 155Z" fill="#0e91a6" fill-rule="evenodd" opacity="1" stroke="none"/>
<path d="M0 138L27.5 132C55 126 110 114 165 110.7C220 107.3 275 112.7 330.2 113.5C385.3 114.3 440.7 110.7 495.8 112.2C551 113.7 606 120.3 661 122.3C716 124.3 771 121.7 826 117.8C881 114 936 109 991.2 109C1046.3 109 1101.7 114 1156.8 113.8C1212 113.7 1267 108.3 1322 108.8C1377 109.3 1432 115.7 1487 118.8C1542 122 1597 122 1652 124.5C1707 127 1762 132 1817.2 131.7C1872.3 131.3 1927.7 125.7 1982.8 124.5C2038 123.3 2093 126.7 2148 125.5C2203 124.3 2258 118.7 2313 121.3C2368 124 2423 135 2478 135.2C2533 135.3 2588 124.7 2643.2 126.3C2698.3 128 2753.7 142 2808.8 145.7C2864 149.3 2919 142.7 2974 137.8C3029 133 3084 130 3139 131.7C3194 133.3 3249 139.7 3304.2 137.7C3359.3 135.7 3414.7 125.3 3469.8 122.7C3525 120 3580 125 3635 122.5C3690 120 3745 110 3772.5 105L3800 100L3800 0L3772.5 0C3745 0 3690 0 3635 0C3580 0 3525 0 3469.8 0C3414.7 0 3359.3 0 3304.2 0C3249 0 3194 0 3139 0C3084 0 3029 0 2974 0C2919 0 2864 0 2808.8 0C2753.7 0 2698.3 0 2643.2 0C2588 0 2533 0 2478 0C2423 0 2368 0 2313 0C2258 0 2203 0 2148 0C2093 0 2038 0 1982.8 0C1927.7 0 1872.3 0 1817.2 0C1762 0 1707 0 1652 0C1597 0 1542 0 1487 0C1432 0 1377 0 1322 0C1267 0 1212 0 1156.8 0C1101.7 0 1046.3 0 991.2 0C936 0 881 0 826 0C771 0 716 0 661 0C606 0 551 0 495.8 0C440.7 0 385.3 0 330.2 0C275 0 220 0 165 0C110 0 55 0 27.5 0L0 0L0 138Z" fill="#128193" fill-rule="evenodd" opacity="1" stroke="none"/>
<path d="M0 83L27.5 83.5C55 84 110 85 165 84.3C220 83.7 275 81.3 330.2 80C385.3 78.7 440.7 78.3 495.8 85C551 91.7 606 105.3 661 110.2C716 115 771 111 826 107.5C881 104 936 101 991.2 97.5C1046.3 94 1101.7 90 1156.8 88.5C1212 87 1267 88 1322 88.2C1377 88.3 1432 87.7 1487 86.5C1542 85.3 1597 83.7 1652 86C1707 88.3 1762 94.7 1817.2 95C1872.3 95.3 1927.7 89.7 1982.8 87C2038 84.3 2093 84.7 2148 81.2C2203 77.7 2258 70.3 2313 68.5C2368 66.7 2423 70.3 2478 80C2533 89.7 2588 105.3 2643.2 104.7C2698.3 104 2753.7 87 2808.8 80.7C2864 74.3 2919 78.7 2974 78.8C3029 79 3084 75 3139 81C3194 87 3249 103 3304.2 102.5C3359.3 102 3414.7 85 3469.8 76.8C3525 68.7 3580 69.3 3635 75.8C3690 82.3 3745 94.7 3772.5 100.8L3800 107L3800 0L3772.5 0C3745 0 3690 0 3635 0C3580 0 3525 0 3469.8 0C3414.7 0 3359.3 0 3304.2 0C3249 0 3194 0 3139 0C3084 0 3029 0 2974 0C2919 0 2864 0 2808.8 0C2753.7 0 2698.3 0 2643.2 0C2588 0 2533 0 2478 0C2423 0 2368 0 2313 0C2258 0 2203 0 2148 0C2093 0 2038 0 1982.8 0C1927.7 0 1872.3 0 1817.2 0C1762 0 1707 0 1652 0C1597 0 1542 0 1487 0C1432 0 1377 0 1322 0C1267 0 1212 0 1156.8 0C1101.7 0 1046.3 0 991.2 0C936 0 881 0 826 0C771 0 716 0 661 0C606 0 551 0 495.8 0C440.7 0 385.3 0 330.2 0C275 0 220 0 165 0C110 0 55 0 27.5 0L0 0L0 83Z" fill="#127185" fill-rule="evenodd" opacity="1" stroke="none"/>
<path d="M0 69L27.5 64.3C55 59.7 110 50.3 165 48.5C220 46.7 275 52.3 330.2 57.3C385.3 62.3 440.7 66.7 495.8 67.3C551 68 606 65 661 65.8C716 66.7 771 71.3 826 69.2C881 67 936 58 991.2 52C1046.3 46 1101.7 43 1156.8 48.2C1212 53.3 1267 66.7 1322 71C1377 75.3 1432 70.7 1487 64.5C1542 58.3 1597 50.7 1652 50.5C1707 50.3 1762 57.7 1817.2 65.7C1872.3 73.7 1927.7 82.3 1982.8 84.5C2038 86.7 2093 82.3 2148 72.7C2203 63 2258 48 2313 41.3C2368 34.7 2423 36.3 2478 38.3C2533 40.3 2588 42.7 2643.2 47C2698.3 51.3 2753.7 57.7 2808.8 57C2864 56.3 2919 48.7 2974 44.3C3029 40 3084 39 3139 41C3194 43 3249 48 3304.2 50.3C3359.3 52.7 3414.7 52.3 3469.8 53.8C3525 55.3 3580 58.7 3635 59.5C3690 60.3 3745 58.7 3772.5 57.8L3800 57L3800 0L3772.5 0C3745 0 3690 0 3635 0C3580 0 3525 0 3469.8 0C3414.7 0 3359.3 0 3304.2 0C3249 0 3194 0 3139 0C3084 0 3029 0 2974 0C2919 0 2864 0 2808.8 0C2753.7 0 2698.3 0 2643.2 0C2588 0 2533 0 2478 0C2423 0 2368 0 2313 0C2258 0 2203 0 2148 0C2093 0 2038 0 1982.8 0C1927.7 0 1872.3 0 1817.2 0C1762 0 1707 0 1652 0C1597 0 1542 0 1487 0C1432 0 1377 0 1322 0C1267 0 1212 0 1156.8 0C1101.7 0 1046.3 0 991.2 0C936 0 881 0 826 0C771 0 716 0 661 0C606 0 551 0 495.8 0C440.7 0 385.3 0 330.2 0C275 0 220 0 165 0C110 0 55 0 27.5 0L0 0L0 69Z" fill="#136476" fill-rule="evenodd" opacity="1" stroke="none"/>
<path d="M0 53L27.5 51.2C55 49.3 110 45.7 165 42.7C220 39.7 275 37.3 330.2 36.5C385.3 35.7 440.7 36.3 495.8 33.7C551 31 606 25 661 21.5C716 18 771 17 826 23.5C881 30 936 44 991.2 43C1046.3 42 1101.7 26 1156.8 18.5C1212 11 1267 12 1322 20.2C1377 28.3 1432 43.7 1487 46.2C1542 48.7 1597 38.3 1652 35C1707 31.7 1762 35.3 1817.2 34.2C1872.3 33 1927.7 27 1982.8 27C2038 27 2093 33 2148 30.5C2203 28 2258 17 2313 18.8C2368 20.7 2423 35.3 2478 39.5C2533 43.7 2588 37.3 2643.2 37.3C2698.3 37.3 2753.7 43.7 2808.8 44.5C2864 45.3 2919 40.7 2974 34C3029 27.3 3084 18.7 3139 15.5C3194 12.3 3249 14.7 3304.2 21.8C3359.3 29 3414.7 41 3469.8 44.8C3525 48.7 3580 44.3 3635 41.7C3690 39 3745 38 3772.5 37.5L3800 37L3800 0L3772.5 0C3745 0 3690 0 3635 0C3580 0 3525 0 3469.8 0C3414.7 0 3359.3 0 3304.2 0C3249 0 3194 0 3139 0C3084 0 3029 0 2974 0C2919 0 2864 0 2808.8 0C2753.7 0 2698.3 0 2643.2 0C2588 0 2533 0 2478 0C2423 0 2368 0 2313 0C2258 0 2203 0 2148 0C2093 0 2038 0 1982.8 0C1927.7 0 1872.3 0 1817.2 0C1762 0 1707 0 1652 0C1597 0 1542 0 1487 0C1432 0 1377 0 1322 0C1267 0 1212 0 1156.8 0C1101.7 0 1046.3 0 991.2 0C936 0 881 0 826 0C771 0 716 0 661 0C606 0 551 0 495.8 0C440.7 0 385.3 0 330.2 0C275 0 220 0 165 0C110 0 55 0 27.5 0L0 0L0 53Z" fill="#135866" fill-rule="evenodd" opacity="1" stroke="none"/>
</g>
</svg>
