<svg id="visual" viewBox="0 0 960 300" width="960" height="300" xmlns="http://www.w3.org/2000/svg" xmlns:xlink="http://www.w3.org/1999/xlink" version="1.1"><rect x="0" y="0" width="960" height="300" fill="#0f0f10"></rect><path d="M0 148L26.7 149.8C53.3 151.7 106.7 155.3 160 152C213.3 148.7 266.7 138.3 320 137.8C373.3 137.3 426.7 146.7 480 148.8C533.3 151 586.7 146 640 144.8C693.3 143.7 746.7 146.3 800 142.2C853.3 138 906.7 127 933.3 121.5L960 116L960 0L933.3 0C906.7 0 853.3 0 800 0C746.7 0 693.3 0 640 0C586.7 0 533.3 0 480 0C426.7 0 373.3 0 320 0C266.7 0 213.3 0 160 0C106.7 0 53.3 0 26.7 0L0 0Z" fill="#44859b"></path><path d="M0 96L26.7 95.7C53.3 95.3 106.7 94.7 160 100.3C213.3 106 266.7 118 320 117.3C373.3 116.7 426.7 103.3 480 102.3C533.3 101.3 586.7 112.7 640 118.2C693.3 123.7 746.7 123.3 800 119.8C853.3 116.3 906.7 109.7 933.3 106.3L960 103L960 0L933.3 0C906.7 0 853.3 0 800 0C746.7 0 693.3 0 640 0C586.7 0 533.3 0 480 0C426.7 0 373.3 0 320 0C266.7 0 213.3 0 160 0C106.7 0 53.3 0 26.7 0L0 0Z" fill="#39768c"></path><path d="M0 89L26.7 88.7C53.3 88.3 106.7 87.7 160 90C213.3 92.3 266.7 97.7 320 95.2C373.3 92.7 426.7 82.3 480 78.5C533.3 74.7 586.7 77.3 640 76.3C693.3 75.3 746.7 70.7 800 71.8C853.3 73 906.7 80 933.3 83.5L960 87L960 0L933.3 0C906.7 0 853.3 0 800 0C746.7 0 693.3 0 640 0C586.7 0 533.3 0 480 0C426.7 0 373.3 0 320 0C266.7 0 213.3 0 160 0C106.7 0 53.3 0 26.7 0L0 0Z" fill="#2f677d"></path><path d="M0 39L26.7 40.3C53.3 41.7 106.7 44.3 160 46.8C213.3 49.3 266.7 51.7 320 52C373.3 52.3 426.7 50.7 480 52C533.3 53.3 586.7 57.7 640 61.7C693.3 65.7 746.7 69.3 800 65.3C853.3 61.3 906.7 49.7 933.3 43.8L960 38L960 0L933.3 0C906.7 0 853.3 0 800 0C746.7 0 693.3 0 640 0C586.7 0 533.3 0 480 0C426.7 0 373.3 0 320 0C266.7 0 213.3 0 160 0C106.7 0 53.3 0 26.7 0L0 0Z" fill="#25586e"></path><path d="M0 18L26.7 20.3C53.3 22.7 106.7 27.3 160 28.3C213.3 29.3 266.7 26.7 320 23.3C373.3 20 426.7 16 480 16.2C533.3 16.3 586.7 20.7 640 24C693.3 27.3 746.7 29.7 800 30.2C853.3 30.7 906.7 29.3 933.3 28.7L960 28L960 0L933.3 0C906.7 0 853.3 0 800 0C746.7 0 693.3 0 640 0C586.7 0 533.3 0 480 0C426.7 0 373.3 0 320 0C266.7 0 213.3 0 160 0C106.7 0 53.3 0 26.7 0L0 0Z" fill="#1a4a5f"></path></svg>