<svg id="visual" viewBox="0 0 960 300" width="960" height="300" xmlns="http://www.w3.org/2000/svg" xmlns:xlink="http://www.w3.org/1999/xlink" version="1.1"><rect x="0" y="0" width="960" height="300" fill="#0f0f10"></rect><path d="M0 134L26.7 130.8C53.3 127.7 106.7 121.3 160 123.2C213.3 125 266.7 135 320 140.2C373.3 145.3 426.7 145.7 480 142C533.3 138.3 586.7 130.7 640 130.7C693.3 130.7 746.7 138.3 800 140.8C853.3 143.3 906.7 140.7 933.3 139.3L960 138L960 0L933.3 0C906.7 0 853.3 0 800 0C746.7 0 693.3 0 640 0C586.7 0 533.3 0 480 0C426.7 0 373.3 0 320 0C266.7 0 213.3 0 160 0C106.7 0 53.3 0 26.7 0L0 0Z" fill="#44859b"></path><path d="M0 109L26.7 106.2C53.3 103.3 106.7 97.7 160 100C213.3 102.3 266.7 112.7 320 111.8C373.3 111 426.7 99 480 95C533.3 91 586.7 95 640 98.2C693.3 101.3 746.7 103.7 800 102.5C853.3 101.3 906.7 96.7 933.3 94.3L960 92L960 0L933.3 0C906.7 0 853.3 0 800 0C746.7 0 693.3 0 640 0C586.7 0 533.3 0 480 0C426.7 0 373.3 0 320 0C266.7 0 213.3 0 160 0C106.7 0 53.3 0 26.7 0L0 0Z" fill="#39768c"></path><path d="M0 92L26.7 90.7C53.3 89.3 106.7 86.7 160 82C213.3 77.3 266.7 70.7 320 72.7C373.3 74.7 426.7 85.3 480 88.8C533.3 92.3 586.7 88.7 640 83C693.3 77.3 746.7 69.7 800 71.2C853.3 72.7 906.7 83.3 933.3 88.7L960 94L960 0L933.3 0C906.7 0 853.3 0 800 0C746.7 0 693.3 0 640 0C586.7 0 533.3 0 480 0C426.7 0 373.3 0 320 0C266.7 0 213.3 0 160 0C106.7 0 53.3 0 26.7 0L0 0Z" fill="#2f677d"></path><path d="M0 45L26.7 45.3C53.3 45.7 106.7 46.3 160 49.2C213.3 52 266.7 57 320 56.5C373.3 56 426.7 50 480 49.8C533.3 49.7 586.7 55.3 640 58.2C693.3 61 746.7 61 800 58.2C853.3 55.3 906.7 49.7 933.3 46.8L960 44L960 0L933.3 0C906.7 0 853.3 0 800 0C746.7 0 693.3 0 640 0C586.7 0 533.3 0 480 0C426.7 0 373.3 0 320 0C266.7 0 213.3 0 160 0C106.7 0 53.3 0 26.7 0L0 0Z" fill="#25586e"></path><path d="M0 34L26.7 30.5C53.3 27 106.7 20 160 18C213.3 16 266.7 19 320 19.8C373.3 20.7 426.7 19.3 480 21.5C533.3 23.7 586.7 29.3 640 29.2C693.3 29 746.7 23 800 22.7C853.3 22.3 906.7 27.7 933.3 30.3L960 33L960 0L933.3 0C906.7 0 853.3 0 800 0C746.7 0 693.3 0 640 0C586.7 0 533.3 0 480 0C426.7 0 373.3 0 320 0C266.7 0 213.3 0 160 0C106.7 0 53.3 0 26.7 0L0 0Z" fill="#1a4a5f"></path></svg>